<svg xmlns="http://www.w3.org/2000/svg" width="20" height="20" viewBox="0 0 20 20" fill="none">
  <mask id="path-2-inside-1_13871_17841" fill="white">
    <path d="M10 0C8.67297 -1.58246e-08 7.35922 0.264124 6.1353 0.776979C4.91138 1.28983 3.80178 2.04116 2.87116 2.98718C1.94054 3.93319 1.20752 5.05497 0.714815 6.28714C0.222109 7.51931 -0.0204258 8.83722 0.00134594 10.1641C0.0231177 11.4909 0.30876 12.8002 0.841626 14.0155C1.37449 15.2308 2.14392 16.328 3.10508 17.2429C4.06624 18.1579 5.19989 18.8724 6.43998 19.3449C7.68006 19.8173 9.00177 20.0382 10.3281 19.9946L10.2894 18.8162C9.11947 18.8546 7.95361 18.6597 6.85974 18.243C5.76587 17.8263 4.76589 17.196 3.91806 16.3889C3.07024 15.5818 2.39153 14.6141 1.92149 13.542C1.45146 12.47 1.19949 11.3151 1.18029 10.1447C1.16108 8.97432 1.37502 7.81181 1.80963 6.72492C2.24424 5.63804 2.89083 4.64853 3.71172 3.81406C4.53261 2.97959 5.51138 2.31685 6.59099 1.86447C7.6706 1.41208 8.82944 1.1791 10 1.1791V0Z"/>
  </mask>
  <path d="M10 0C8.67297 -1.58246e-08 7.35922 0.264124 6.1353 0.776979C4.91138 1.28983 3.80178 2.04116 2.87116 2.98718C1.94054 3.93319 1.20752 5.05497 0.714815 6.28714C0.222109 7.51931 -0.0204258 8.83722 0.00134594 10.1641C0.0231177 11.4909 0.30876 12.8002 0.841626 14.0155C1.37449 15.2308 2.14392 16.328 3.10508 17.2429C4.06624 18.1579 5.19989 18.8724 6.43998 19.3449C7.68006 19.8173 9.00177 20.0382 10.3281 19.9946L10.2894 18.8162C9.11947 18.8546 7.95361 18.6597 6.85974 18.243C5.76587 17.8263 4.76589 17.196 3.91806 16.3889C3.07024 15.5818 2.39153 14.6141 1.92149 13.542C1.45146 12.47 1.19949 11.3151 1.18029 10.1447C1.16108 8.97432 1.37502 7.81181 1.80963 6.72492C2.24424 5.63804 2.89083 4.64853 3.71172 3.81406C4.53261 2.97959 5.51138 2.31685 6.59099 1.86447C7.6706 1.41208 8.82944 1.1791 10 1.1791V0Z" stroke="#BFA879" stroke-width="2.5" mask="url(#path-2-inside-1_13871_17841)"/>
  <circle cx="10" cy="10" r="5" fill="#BFA879"/>
</svg>